<mxfile host="Electron" agent="Mozilla/5.0 (Macintosh; Intel Mac OS X 10_15_7) AppleWebKit/537.36 (KHTML, like Gecko) draw.io/24.7.5 Chrome/126.0.6478.183 Electron/31.3.0 Safari/537.36" version="24.7.5">
  <diagram name="Page-1" id="CrsVlyNlqynqQEds2Bug">
    <mxGraphModel dx="1393" dy="1024" grid="1" gridSize="10" guides="1" tooltips="1" connect="1" arrows="1" fold="1" page="1" pageScale="1" pageWidth="850" pageHeight="1100" math="0" shadow="0">
      <root>
        <mxCell id="0" />
        <mxCell id="1" parent="0" />
        <mxCell id="Ei1WO3jMs3_zQEc9v4Vs-1" value="The 300W-LP dataset" style="sketch=0;shadow=0;dashed=0;html=1;strokeColor=none;labelPosition=center;verticalLabelPosition=bottom;verticalAlign=top;outlineConnect=0;align=center;shape=mxgraph.office.databases.database_cube;fillColor=#2072B8;" vertex="1" parent="1">
          <mxGeometry x="50" y="70" width="120" height="120" as="geometry" />
        </mxCell>
        <mxCell id="Ei1WO3jMs3_zQEc9v4Vs-2" value="Extract only&lt;div&gt;head position features&lt;/div&gt;" style="shape=cube;whiteSpace=wrap;html=1;boundedLbl=1;backgroundOutline=1;darkOpacity=0.05;darkOpacity2=0.1;size=10;fillColor=#dae8fc;strokeColor=#6c8ebf;" vertex="1" parent="1">
          <mxGeometry x="220" y="95" width="120" height="70" as="geometry" />
        </mxCell>
        <mxCell id="Ei1WO3jMs3_zQEc9v4Vs-3" value="" style="endArrow=classic;html=1;rounded=0;" edge="1" parent="1">
          <mxGeometry width="50" height="50" relative="1" as="geometry">
            <mxPoint x="180" y="129.82" as="sourcePoint" />
            <mxPoint x="210" y="130" as="targetPoint" />
          </mxGeometry>
        </mxCell>
        <mxCell id="Ei1WO3jMs3_zQEc9v4Vs-4" value="Yaw-Pitch-Roll dataset" style="sketch=0;shadow=0;dashed=0;html=1;strokeColor=none;labelPosition=center;verticalLabelPosition=bottom;verticalAlign=top;outlineConnect=0;align=center;shape=mxgraph.office.databases.database_cube;fillColor=#DA4026;" vertex="1" parent="1">
          <mxGeometry x="390" y="70" width="120" height="120" as="geometry" />
        </mxCell>
        <mxCell id="Ei1WO3jMs3_zQEc9v4Vs-5" value="" style="endArrow=classic;html=1;rounded=0;" edge="1" parent="1">
          <mxGeometry width="50" height="50" relative="1" as="geometry">
            <mxPoint x="350" y="130" as="sourcePoint" />
            <mxPoint x="380" y="129.85" as="targetPoint" />
          </mxGeometry>
        </mxCell>
        <mxCell id="Ei1WO3jMs3_zQEc9v4Vs-7" value="" style="shape=cube;whiteSpace=wrap;html=1;boundedLbl=1;backgroundOutline=1;darkOpacity=0.05;darkOpacity2=0.1;size=10;fillColor=#f5f5f5;strokeColor=#666666;fontColor=#333333;" vertex="1" parent="1">
          <mxGeometry x="560" y="80" width="100" height="100" as="geometry" />
        </mxCell>
        <mxCell id="Ei1WO3jMs3_zQEc9v4Vs-8" value="" style="sketch=0;points=[[0,0,0],[0.25,0,0],[0.5,0,0],[0.75,0,0],[1,0,0],[0,1,0],[0.25,1,0],[0.5,1,0],[0.75,1,0],[1,1,0],[0,0.25,0],[0,0.5,0],[0,0.75,0],[1,0.25,0],[1,0.5,0],[1,0.75,0]];outlineConnect=0;fontColor=#232F3E;fillColor=#01A88D;strokeColor=#ffffff;dashed=0;verticalLabelPosition=bottom;verticalAlign=top;align=center;html=1;fontSize=12;fontStyle=0;aspect=fixed;shape=mxgraph.aws4.resourceIcon;resIcon=mxgraph.aws4.deep_learning_amis;" vertex="1" parent="1">
          <mxGeometry x="580" y="100" width="70" height="70" as="geometry" />
        </mxCell>
        <mxCell id="Ei1WO3jMs3_zQEc9v4Vs-9" value="" style="endArrow=classic;html=1;rounded=0;" edge="1" parent="1">
          <mxGeometry width="50" height="50" relative="1" as="geometry">
            <mxPoint x="520" y="129.91" as="sourcePoint" />
            <mxPoint x="550" y="129.76" as="targetPoint" />
          </mxGeometry>
        </mxCell>
        <mxCell id="Ei1WO3jMs3_zQEc9v4Vs-10" value="Persisted model" style="verticalLabelPosition=bottom;html=1;verticalAlign=top;strokeWidth=1;align=center;outlineConnect=0;dashed=0;outlineConnect=0;shape=mxgraph.aws3d.file;aspect=fixed;strokeColor=#292929;" vertex="1" parent="1">
          <mxGeometry x="710" y="95" width="34.9" height="80" as="geometry" />
        </mxCell>
        <mxCell id="Ei1WO3jMs3_zQEc9v4Vs-12" value="" style="endArrow=classic;html=1;rounded=0;" edge="1" parent="1">
          <mxGeometry width="50" height="50" relative="1" as="geometry">
            <mxPoint x="670" y="129.91" as="sourcePoint" />
            <mxPoint x="700" y="129.76" as="targetPoint" />
          </mxGeometry>
        </mxCell>
        <mxCell id="Ei1WO3jMs3_zQEc9v4Vs-13" value="CNN Regressor model trained with yaw angle values" style="text;html=1;align=center;verticalAlign=middle;whiteSpace=wrap;rounded=0;" vertex="1" parent="1">
          <mxGeometry x="562.5" y="190" width="105" height="30" as="geometry" />
        </mxCell>
      </root>
    </mxGraphModel>
  </diagram>
</mxfile>
